<svg width="37" height="35" viewBox="0 0 37 35" fill="none" xmlns="http://www.w3.org/2000/svg">
<path d="M35.3439 17.1994L19.9879 1.85128L18.9586 0.821985C18.7241 0.589008 18.4069 0.458252 18.0763 0.458252C17.7458 0.458252 17.4286 0.589008 17.1941 0.821985L0.808761 17.1994C0.56845 17.4387 0.378528 17.7238 0.250206 18.0378C0.121884 18.3518 0.0577621 18.6883 0.0616252 19.0275C0.0775217 20.4264 1.24194 21.5431 2.64083 21.5431H4.32984V34.4868H31.8229V21.5431H33.5476C34.2272 21.5431 34.867 21.2768 35.3479 20.796C35.5847 20.5599 35.7723 20.2793 35.8999 19.9703C36.0274 19.6612 36.0924 19.33 36.0911 18.9957C36.0911 18.3201 35.8248 17.6802 35.3439 17.1994V17.1994ZM20.3019 31.6255H15.8508V23.5182H20.3019V31.6255ZM28.9615 18.6817V31.6255H22.8453V22.5644C22.8453 21.6862 22.1339 20.9748 21.2557 20.9748H14.897C14.0188 20.9748 13.3074 21.6862 13.3074 22.5644V31.6255H7.19121V18.6817H3.37605L18.0803 3.98937L18.9983 4.90739L32.7806 18.6817H28.9615Z" fill="#8C8C8C"/>
</svg>
